<?xml version="1.0" encoding="iso-8859-1"?>
<!-- Generator: Adobe Illustrator 19.0.0, SVG Export Plug-In . SVG Version: 6.00 Build 0)  -->
<svg xmlns="http://www.w3.org/2000/svg" xmlns:xlink="http://www.w3.org/1999/xlink" version="1.1" id="Layer_1" x="0px" y="0px" viewBox="0 0 512.059 512.059" style="enable-background:new 0 0 512.059 512.059;" xml:space="preserve" width="512" height="512">
<g id="lemon">
	<g id="fill_9_">
		<path style="fill:#FFDE55;" d="M358.571,85.488C346,72.917,324.86,72.554,305.78,82.869c-8.512,4.602-18.528,5.304-27.68,2.162    C216.16,63.77,135.906,85.06,76.483,144.483C17.059,203.907-4.23,284.161,17.031,346.101c3.142,9.152,2.439,19.168-2.163,27.68    c-10.315,19.079-9.953,40.219,2.618,52.79c12.571,12.571,33.711,12.933,52.79,2.618c8.512-4.602,18.528-5.304,27.68-2.162    c61.94,21.261,142.194-0.028,201.618-59.452c59.424-59.424,80.713-139.678,59.452-201.617c-3.141-9.152-2.439-19.168,2.163-27.68    C371.504,119.199,371.142,98.059,358.571,85.488z"/>
		<path style="fill:#FFCD00;" d="M299.606,367.576c59.424-59.423,80.713-139.677,59.452-201.617    c-3.142-9.152-2.439-19.168,2.162-27.68c5.533-10.234,7.961-21.05,7.114-30.828c-68.06,2.5-166.756,28.126-202.278,148.58    c-22.268,75.509-49.816,130.482-74.991,169.373c2.337,0.306,4.657,0.846,6.924,1.625    C159.929,448.289,240.183,426.999,299.606,367.576z"/>
		<circle style="fill:#FFDE55;" cx="368.499" cy="300.439" r="136.061"/>
		<path style="fill:#FFF4C7;" d="M368.499,398.345c-53.986,0-97.906-43.92-97.906-97.905c0-53.986,43.92-97.906,97.906-97.906    s97.906,43.92,97.906,97.906C466.405,354.424,422.484,398.345,368.499,398.345z"/>
		<path style="fill:#FFEB99;" d="M331.041,209.987L331.041,209.987l29.048,70.127c3.107,7.501,13.731,7.501,16.838,0l29.03-70.085    C382.794,200.435,355.979,199.657,331.041,209.987z"/>
		<path style="fill:#FFEB99;" d="M458.951,262.981L458.951,262.981l-70.128,29.048c-7.501,3.107-7.501,13.731,0,16.838l70.085,29.03    C468.503,314.734,469.281,287.919,458.951,262.981z"/>
		<path style="fill:#FFEB99;" d="M405.957,390.891L405.957,390.891l-29.048-70.127c-3.107-7.501-13.731-7.501-16.838,0    l-29.03,70.085C354.204,400.443,381.019,401.221,405.957,390.891z"/>
		<path style="fill:#FFEB99;" d="M278.046,337.897L278.046,337.897l70.128-29.048c7.501-3.107,7.501-13.731,0-16.838l-70.085-29.03    C268.494,286.144,267.717,312.959,278.046,337.897z"/>
	</g>
	<g id="stroke_9_">
		<path d="M215.961,160.29c-2.929-2.929-7.677-2.929-10.607,0c-2.929,2.929-2.929,7.678,0,10.607l8.804,8.804    c2.929,2.929,7.677,2.93,10.607,0c2.929-2.929,2.929-7.678,0-10.606L215.961,160.29z"/>
		<path d="M91.289,274.355c-2.929,2.929-2.929,7.678,0,10.607l8.804,8.804c2.929,2.929,7.677,2.929,10.606,0    c2.929-2.929,2.929-7.678,0-10.606l-8.804-8.804C98.967,271.427,94.218,271.426,91.289,274.355z"/>
		<path d="M171.195,214.287c-1.711,13.544-12.365,24.198-25.909,25.909c-4.109,0.519-7.021,4.272-6.5,8.381    c0.519,4.11,4.271,7.021,8.381,6.501c10.17-1.285,19.255-5.928,26.119-12.792c6.864-6.864,11.507-15.949,12.791-26.119    c0.52-4.11-2.391-7.862-6.501-8.381C175.466,207.267,171.713,210.179,171.195,214.287z"/>
		<path d="M476.284,205.61c-2.736-3.109-7.476-3.411-10.585-0.673c-3.108,2.737-3.41,7.477-0.673,10.585    c20.657,23.463,32.033,53.62,32.033,84.917c0,70.889-57.672,128.561-128.56,128.561c-70.889,0-128.561-57.672-128.561-128.561    s57.672-128.561,128.561-128.561c26.737,0,52.368,8.128,74.122,23.505c3.382,2.392,8.063,1.586,10.453-1.795    c2.392-3.382,1.545-8.003-1.795-10.454c-36.736-26.962-85.29-26.239-86.54-26.207c-0.463-5.244,0.567-10.495,3.047-15.083    c12.311-22.77,10.775-46.973-3.913-61.661c-14.689-14.688-38.894-16.222-61.659-3.913c-6.549,3.541-14.449,4.148-21.68,1.667    c-32.292-11.085-69.034-11.309-106.252-0.647c-37.785,10.823-73.438,32.225-103.104,61.889    c-29.664,29.665-51.065,65.317-61.889,103.103c-10.661,37.219-10.438,73.96,0.646,106.253c2.481,7.229,1.874,15.13-1.666,21.678    c-12.31,22.77-10.775,46.973,3.913,61.661c8.084,8.084,19.049,12.184,31.073,12.183c9.821-0.001,20.351-2.736,30.588-8.271    c6.548-3.542,14.448-4.147,21.678-1.667c45.658,15.672,100.511,9.341,150.489-17.37c3.653-1.953,5.032-6.497,3.079-10.15    c-1.951-3.653-6.493-5.032-10.149-3.08c-46.317,24.755-96.814,30.737-138.55,16.412c-11.182-3.838-23.459-2.869-33.681,2.659    c-16.539,8.94-34.189,8.408-43.921-1.324c-9.733-9.733-10.266-27.383-1.324-43.92c5.527-10.224,6.496-22.501,2.658-33.682    c-10.082-29.372-10.226-63.001-0.414-97.252c10.124-35.345,30.206-68.758,58.076-96.628    c27.869-27.869,61.282-47.951,96.627-58.076c34.252-9.811,67.881-9.667,97.252,0.415c11.18,3.837,23.455,2.869,33.683-2.659    c16.538-8.942,34.188-8.408,43.919,1.324c9.733,9.733,10.266,27.383,1.324,43.92c-3.859,7.139-5.514,15.28-4.827,23.389    c-70.339,9.208-124.826,69.528-124.826,142.338c0,79.16,64.401,143.561,143.561,143.561c79.159,0,143.56-64.401,143.56-143.561    C512.059,265.491,499.354,231.813,476.284,205.61z"/>
		<path d="M368.499,195.033c-58.121,0-105.406,47.285-105.406,105.406c0,14.276,2.858,27.895,8.024,40.323    c0.001,0.002,0.001,0.003,0.002,0.005c0,0.001,0.001,0.002,0.001,0.003c15.866,38.166,53.537,65.075,97.379,65.075    c58.121,0,105.406-47.285,105.406-105.405C473.905,242.318,426.62,195.033,368.499,195.033z M396.056,214.333l-26.059,62.911    c-0.652,1.792-2.111,2.066-2.979,0l-26.061-62.916c8.688-2.785,17.941-4.295,27.542-4.295    C378.105,210.033,387.364,211.545,396.056,214.333z M340.941,386.545l26.059-62.911c0.976-2.468,2.435-1.556,2.979,0    l26.061,62.916c-8.688,2.785-17.941,4.295-27.542,4.295C358.892,390.845,349.634,389.333,340.941,386.545z M409.893,380.796    l-26.054-62.902c-2.581-6.23-8.606-10.256-15.349-10.256c-6.743,0-12.768,4.026-15.348,10.255l-26.052,62.895    c-16.669-8.625-30.327-22.285-38.949-38.955l62.902-26.055c6.23-2.581,10.256-8.605,10.256-15.349    c0-6.743-4.025-12.768-10.256-15.348l-40.132-16.623c-3.825-1.585-8.214,0.232-9.799,4.059c-1.586,3.827,0.232,8.214,4.059,9.799    l40.132,16.623c1.518,0.614,2.157,1.982,0,2.98l-62.916,26.061c-2.785-8.688-4.295-17.941-4.295-27.542    c0-34.942,19.927-65.314,49.012-80.358l26.054,62.902c2.581,6.23,8.605,10.256,15.349,10.256c6.743,0,12.768-4.026,15.348-10.255    l26.052-62.895c16.669,8.625,30.327,22.285,38.949,38.955l-62.902,26.055c-6.229,2.58-10.256,8.604-10.256,15.348    c0,6.743,4.025,12.768,10.256,15.349l62.895,26.052C440.223,358.516,426.563,372.174,409.893,380.796z M458.905,300.439    c0,9.606-1.512,18.865-4.3,27.557l-62.911-26.059c-1.924-0.651-2.106-2.201,0-2.979l62.916-26.061    C457.395,281.585,458.905,290.839,458.905,300.439z"/>
	</g>
</g>















</svg>
