<?xml version="1.0" standalone="no"?>
<!DOCTYPE svg PUBLIC "-//W3C//DTD SVG 20010904//EN"
 "http://www.w3.org/TR/2001/REC-SVG-20010904/DTD/svg10.dtd">
<svg version="1.0" xmlns="http://www.w3.org/2000/svg"
 width="700.000000pt" height="700.000000pt" viewBox="0 0 700.000000 700.000000"
 preserveAspectRatio="xMidYMid meet">
<metadata>
Created by potrace 1.11, written by Peter Selinger 2001-2013
</metadata>
<g transform="translate(0.000000,700.000000) scale(0.100000,-0.100000)"
fill="#000000" stroke="none">
<path d="M4390 6050 c-97 -21 -134 -34 -240 -83 -144 -67 -208 -67 -430 2 -36
11 -78 22 -95 25 -16 2 -55 9 -85 16 -30 6 -68 13 -85 15 -16 2 -55 7 -85 11
-73 10 -440 10 -510 0 -30 -4 -68 -9 -85 -11 -68 -8 -175 -28 -250 -47 -44
-11 -89 -22 -100 -24 -147 -29 -546 -193 -717 -296 -315 -188 -507 -336 -743
-573 -436 -436 -734 -959 -870 -1527 -14 -59 -28 -122 -30 -139 -2 -17 -7 -44
-10 -60 -8 -35 -11 -55 -22 -154 -10 -89 -9 -422 1 -500 4 -33 10 -76 12 -95
9 -72 36 -189 70 -308 55 -191 53 -228 -26 -413 -63 -147 -88 -257 -85 -375 3
-106 10 -151 36 -220 86 -230 321 -376 579 -361 47 3 94 8 105 10 11 3 39 8
62 12 24 4 45 11 49 16 3 5 12 9 21 9 9 0 57 19 107 42 161 74 222 79 389 29
263 -78 431 -100 712 -95 192 3 217 5 335 24 36 5 81 13 100 16 90 14 318 77
435 119 150 55 179 67 333 141 127 62 153 89 146 153 -3 34 -1 38 44 65 26 16
67 42 92 58 l45 28 85 -81 c92 -87 223 -189 335 -259 82 -51 283 -150 306
-150 8 0 19 -4 25 -9 9 -9 182 -65 234 -76 211 -44 292 -52 480 -50 213 3 276
11 469 61 182 46 365 124 526 222 80 49 150 97 165 112 3 3 23 18 45 34 22 17
92 82 156 145 312 311 504 700 564 1141 11 77 13 381 3 449 -4 31 -10 76 -14
101 -3 25 -8 54 -11 65 -2 11 -6 31 -9 45 -54 270 -192 559 -384 807 -77 99
-120 121 -184 92 -21 -10 -28 -8 -48 12 -14 13 -52 48 -85 78 -55 48 -60 56
-51 76 6 13 7 40 4 60 -6 29 -19 44 -68 81 -155 114 -475 250 -654 278 -21 4
-55 11 -74 16 -19 5 -57 12 -85 16 -27 3 -59 8 -69 10 -26 5 -175 16 -226 17
-22 0 -41 4 -41 9 -10 60 7 129 59 243 67 147 86 231 86 370 0 98 -4 134 -23
197 -13 43 -30 83 -37 89 -8 6 -14 16 -14 22 0 41 -128 169 -213 214 -126 67
-302 87 -457 53z"/>
</g>
</svg>
